<?xml version="1.0" standalone="no"?>
<!DOCTYPE svg PUBLIC "-//W3C//DTD SVG 20010904//EN"
 "http://www.w3.org/TR/2001/REC-SVG-20010904/DTD/svg10.dtd">
<svg version="1.0" xmlns="http://www.w3.org/2000/svg"
 width="1049.000000pt" height="1049.000000pt" viewBox="0 0 1049.000000 1049.000000"
 preserveAspectRatio="xMidYMid meet">
<metadata>
Created by potrace 1.14, written by Peter Selinger 2001-2017
</metadata>
<g transform="translate(0.000000,1049.000000) scale(0.100000,-0.100000)"
fill="#000000" stroke="none">
<path d="M4978 10485 c-2 -1 -50 -5 -108 -9 -58 -4 -116 -9 -130 -10 -14 -2
-56 -7 -95 -11 -95 -9 -303 -41 -400 -60 -44 -9 -92 -18 -106 -21 -14 -3 -95
-23 -180 -44 -85 -22 -164 -42 -176 -45 -104 -24 -507 -172 -668 -245 -89 -40
-328 -159 -380 -188 -27 -16 -77 -43 -110 -62 -415 -231 -881 -606 -1255
-1010 -131 -141 -435 -528 -463 -587 -6 -13 -14 -23 -19 -23 -4 0 -8 -5 -8
-10 0 -6 -15 -32 -33 -58 -151 -219 -341 -583 -469 -902 -45 -112 -170 -474
-183 -532 -2 -13 -22 -94 -44 -180 -22 -87 -42 -175 -44 -195 -3 -21 -10 -58
-16 -83 -5 -25 -12 -65 -16 -90 -3 -25 -8 -52 -10 -60 -2 -8 -7 -39 -10 -69
-4 -30 -9 -63 -11 -75 -2 -12 -7 -50 -10 -86 -3 -36 -7 -78 -9 -95 -25 -194
-25 -814 -1 -965 2 -14 7 -59 11 -100 8 -94 14 -141 20 -160 2 -8 7 -42 11
-75 3 -33 8 -62 9 -65 2 -3 6 -26 10 -50 3 -25 10 -61 15 -80 5 -19 11 -51 14
-71 3 -20 8 -42 10 -50 3 -8 7 -26 10 -41 6 -37 67 -271 72 -280 3 -4 7 -16 9
-25 6 -30 55 -183 92 -288 196 -553 484 -1061 877 -1550 84 -105 117 -142 231
-263 322 -341 675 -634 1045 -864 439 -274 929 -488 1410 -618 94 -25 362 -86
415 -94 22 -4 78 -13 125 -20 47 -8 108 -17 135 -21 28 -3 61 -8 75 -10 14 -2
54 -6 90 -9 36 -3 97 -9 135 -13 96 -9 669 -10 780 0 171 14 203 17 315 32 19
3 53 7 75 10 38 4 53 7 115 20 14 3 43 7 65 11 53 7 302 62 341 75 17 5 42 12
55 14 115 22 475 145 691 235 114 48 490 231 513 250 5 4 37 23 70 42 184 103
495 316 665 455 209 171 522 471 645 617 28 33 57 67 65 76 79 82 300 382 411
555 179 280 265 445 445 852 8 17 14 34 14 38 0 3 8 25 19 48 57 127 187 549
221 717 5 25 18 86 29 136 11 50 22 111 26 135 3 24 10 67 15 94 10 56 20 125
24 170 2 17 7 59 11 95 42 354 33 907 -20 1260 -2 14 -6 45 -10 70 -3 25 -8
56 -10 70 -3 14 -7 39 -10 55 -3 17 -7 41 -10 55 -3 14 -7 37 -10 52 -4 22
-46 210 -60 272 -28 122 -144 488 -179 571 -8 17 -30 73 -51 125 -212 531
-546 1065 -948 1515 -118 132 -410 418 -492 483 -29 22 -122 99 -134 111 -9 8
-74 57 -146 111 -379 282 -767 499 -1200 672 -107 42 -331 121 -405 142 -77
22 -244 68 -260 71 -8 2 -53 12 -100 23 -79 18 -223 46 -365 71 -33 6 -89 13
-125 17 -36 3 -67 8 -70 9 -3 2 -48 7 -100 10 -52 4 -106 9 -120 12 -28 4
-647 13 -652 8z"/>
</g>
</svg>
