<?xml version="1.0" standalone="no"?>
<!DOCTYPE svg PUBLIC "-//W3C//DTD SVG 20010904//EN"
 "http://www.w3.org/TR/2001/REC-SVG-20010904/DTD/svg10.dtd">
<svg version="1.0" xmlns="http://www.w3.org/2000/svg"
 width="626.000000pt" height="626.000000pt" viewBox="0 0 626.000000 626.000000"
 preserveAspectRatio="xMidYMid meet">
<metadata>
Created by potrace 1.14, written by Peter Selinger 2001-2017
</metadata>
<g transform="translate(0.000000,626.000000) scale(0.100000,-0.100000)"
fill="#000000" stroke="none">
<path d="M3067 6254 c-1 -1 -51 -4 -112 -8 -512 -31 -993 -179 -1429 -438 -67
-40 -123 -74 -126 -77 -3 -4 -32 -24 -64 -46 -33 -22 -64 -44 -70 -50 -6 -6
-29 -24 -52 -40 -140 -103 -420 -379 -540 -535 -385 -499 -596 -1030 -661
-1665 -10 -88 -9 -457 1 -550 55 -540 232 -1033 526 -1470 30 -44 60 -86 67
-93 7 -7 13 -16 13 -20 0 -4 13 -21 28 -38 15 -17 41 -49 57 -70 98 -126 370
-396 470 -466 5 -4 26 -20 45 -36 138 -115 456 -303 662 -391 190 -81 468
-170 613 -196 17 -2 39 -7 50 -9 21 -4 136 -22 195 -31 140 -20 456 -26 640
-13 101 7 286 33 360 50 25 5 56 12 70 14 92 18 291 78 440 133 103 38 381
173 476 231 61 37 232 151 259 172 81 64 198 160 228 187 21 19 54 49 74 67
l37 33 -46 113 c-25 62 -109 272 -188 466 l-143 353 31 43 c81 113 181 306
243 473 34 91 96 311 104 368 1 11 5 38 9 60 20 124 24 200 21 390 -1 116 -5
219 -8 230 -2 11 -8 42 -11 68 -4 27 -9 59 -12 70 -2 12 -7 38 -10 57 -9 55
-71 265 -100 338 -140 356 -383 694 -659 915 -49 39 -92 74 -95 78 -30 35
-396 246 -407 235 -4 -4 257 -657 279 -701 6 -11 45 -56 87 -100 244 -256 409
-582 465 -920 23 -143 26 -173 26 -295 0 -171 -6 -234 -40 -396 -27 -127 -121
-397 -134 -383 -5 5 -78 185 -281 689 -91 228 -172 429 -180 445 -7 17 -40 98
-73 180 -33 83 -99 247 -147 365 -48 118 -109 271 -137 340 -27 69 -56 139
-63 155 -7 17 -58 143 -113 280 -56 138 -105 261 -111 275 -6 14 -29 72 -53
130 l-43 105 -45 7 c-117 17 -208 23 -365 23 -212 0 -259 -5 -502 -51 -12 -2
-35 -9 -50 -15 -16 -6 -30 -10 -33 -10 -36 3 -256 -80 -405 -154 -508 -249
-926 -718 -1109 -1242 -31 -91 -65 -202 -71 -233 -2 -14 -9 -45 -14 -70 -21
-99 -26 -129 -36 -245 -14 -151 -9 -418 10 -515 3 -13 7 -42 11 -65 28 -190
102 -422 199 -616 116 -232 243 -409 429 -595 328 -327 752 -546 1196 -619 25
-4 52 -9 61 -10 96 -18 520 -28 535 -12 4 3 6 830 6 1837 0 1007 2 1830 3
1828 3 -3 91 -221 370 -913 96 -236 228 -563 293 -725 198 -488 351 -869 394
-975 22 -55 46 -113 53 -130 7 -16 79 -194 159 -394 81 -200 151 -372 157
-382 8 -15 0 -25 -43 -60 -146 -117 -417 -270 -614 -348 -125 -49 -306 -105
-428 -131 -82 -18 -124 -25 -291 -48 -65 -9 -470 -8 -559 1 -466 47 -919 225
-1316 516 -75 56 -87 65 -189 155 -218 191 -432 465 -589 757 -93 173 -205
482 -238 659 -3 14 -9 43 -14 65 -5 22 -12 63 -16 90 -3 28 -8 52 -9 55 -18
29 -27 504 -12 635 20 183 66 399 122 569 241 738 825 1359 1547 1647 153 61
376 126 494 145 22 3 41 7 44 9 3 2 37 6 75 10 39 4 72 9 76 11 23 14 369 20
506 10 260 -21 538 -83 764 -171 563 -221 1035 -621 1339 -1135 147 -247 254
-517 311 -785 24 -111 27 -128 35 -185 3 -25 8 -52 9 -61 23 -121 23 -520 1
-659 -3 -14 -7 -45 -10 -70 -3 -25 -8 -56 -11 -70 -3 -14 -8 -41 -11 -60 -9
-55 -73 -285 -101 -363 -51 -144 -170 -400 -218 -470 -10 -15 2 -54 81 -250
52 -128 98 -241 102 -251 7 -17 15 -11 55 46 329 460 519 986 572 1578 5 60 5
401 0 465 -24 301 -87 586 -190 866 -47 128 -184 415 -229 482 -14 21 -26 40
-26 43 0 22 -240 350 -328 447 -127 142 -316 317 -439 409 -32 24 -60 46 -63
49 -11 14 -241 160 -325 206 -243 134 -553 256 -783 308 -33 8 -218 44 -252
49 -112 19 -530 49 -543 40z m-640 -1656 c-41 -100 -127 -311 -190 -468 -173
-428 -366 -907 -379 -938 -6 -15 -12 -31 -14 -37 -3 -12 -298 -738 -315 -775
-10 -24 -11 -23 -31 20 -74 164 -128 368 -145 550 -19 204 -4 413 44 605 127
512 472 939 942 1170 136 66 155 74 159 65 2 -5 -31 -91 -71 -192z m476 -1616
c-2 -1789 -1 -1635 -11 -1628 -4 2 -28 7 -52 11 -267 38 -595 184 -820 364
-93 74 -190 168 -190 183 0 5 51 136 114 291 63 155 176 435 251 622 76 187
196 484 267 660 71 176 179 444 240 595 60 151 118 293 128 315 9 22 28 68 41
103 13 34 26 62 29 62 3 0 4 -710 3 -1578z"/>
</g>
</svg>
